<svg width="44" height="51" viewBox="0 0 44 51" fill="none" xmlns="http://www.w3.org/2000/svg">
<g id="schedule maintenance" clip-path="url(#clip0_49_297)">
<path id="Vector" d="M40.5625 7.17188H3.4375C1.91872 7.17188 0.6875 8.59897 0.6875 10.3594V47.0156C0.6875 48.776 1.91872 50.2031 3.4375 50.2031H40.5625C42.0813 50.2031 43.3125 48.776 43.3125 47.0156V10.3594C43.3125 8.59897 42.0813 7.17188 40.5625 7.17188Z" fill="#D8D9DC"/>
<path id="Vector_2" d="M3.4375 7.17188H40.5625C41.2918 7.17188 41.9913 7.5077 42.507 8.10547C43.0228 8.70324 43.3125 9.514 43.3125 10.3594V18.3281H0.6875V10.3594C0.6875 9.514 0.977231 8.70324 1.49296 8.10547C2.00868 7.5077 2.70815 7.17188 3.4375 7.17188Z" fill="#EC456B"/>
<path id="Vector_3" d="M8.9375 3.1875C8.9375 1.86719 8.01409 0.796875 6.875 0.796875C5.73591 0.796875 4.8125 1.86719 4.8125 3.1875V11.1562C4.8125 12.4766 5.73591 13.5469 6.875 13.5469C8.01409 13.5469 8.9375 12.4766 8.9375 11.1562V3.1875Z" fill="#D8D9DC"/>
<path id="Vector_4" d="M39.1875 3.1875C39.1875 1.86719 38.2641 0.796875 37.125 0.796875C35.9859 0.796875 35.0625 1.86719 35.0625 3.1875V11.1562C35.0625 12.4766 35.9859 13.5469 37.125 13.5469C38.2641 13.5469 39.1875 12.4766 39.1875 11.1562V3.1875Z" fill="#D8D9DC"/>
<path id="Vector_5" d="M31.7625 44.7525C31.7628 45.3537 31.5605 45.9313 31.1988 46.3622C30.8307 46.7836 30.3342 47.0199 29.8169 47.0199C29.2995 47.0199 28.803 46.7836 28.435 46.3622L22.9763 40.0191L22 38.9034L16.4725 32.4806C15.5827 32.9043 14.6071 33.0254 13.6601 32.8295C12.713 32.6336 11.8337 32.129 11.1253 31.3747C10.4168 30.6204 9.90843 29.6477 9.65977 28.5705C9.41111 27.4934 9.43244 26.3564 9.72126 25.2928L12.4025 28.4006C12.4664 28.4753 12.5425 28.5346 12.6262 28.575C12.71 28.6155 12.7999 28.6363 12.8906 28.6363C12.9814 28.6363 13.0712 28.6155 13.155 28.575C13.2388 28.5346 13.3148 28.4753 13.3788 28.4006L15.7163 25.7072C15.8421 25.555 15.9124 25.3523 15.9124 25.1414C15.9124 24.9305 15.8421 24.7278 15.7163 24.5756L13.0213 21.4678C13.9392 21.1295 14.9214 21.1023 15.8522 21.3893C16.783 21.6763 17.6237 22.2656 18.2753 23.0878C18.9269 23.91 19.3622 24.9309 19.53 26.0303C19.6978 27.1296 19.5911 28.2617 19.2225 29.2931L24.7638 35.7L25.7263 36.8316L31.1988 43.1587C31.5578 43.5852 31.76 44.1566 31.7625 44.7525Z" fill="#8B8891"/>
<path id="Vector_6" d="M25.8761 22.9086C26.5308 22.1499 27.3525 21.6141 28.2518 21.3595C29.151 21.1049 30.0933 21.1413 30.976 21.4646L28.2893 24.5788C28.1604 24.7283 28.088 24.9309 28.088 25.1422C28.088 25.3535 28.1604 25.5562 28.2893 25.7056L30.6268 28.415C30.7557 28.5644 30.9305 28.6483 31.1128 28.6483C31.2951 28.6483 31.47 28.5644 31.5989 28.415L34.2856 25.3008C34.5752 26.3646 34.5971 27.5022 34.3486 28.5799C34.1001 29.6576 33.5916 30.6309 32.8827 31.3854C32.1739 32.14 31.294 32.6446 30.3465 32.84C29.3989 33.0354 28.4229 32.9135 27.533 32.4886L15.5705 46.3542C15.2055 46.7762 14.711 47.0132 14.1955 47.0132C13.68 47.0132 13.1855 46.7762 12.8205 46.3542C12.4564 45.9312 12.252 45.358 12.252 44.7605C12.252 44.1629 12.4564 43.5898 12.8205 43.1667L24.783 29.3011C24.3996 28.2297 24.2988 27.0505 24.4933 25.9127C24.6879 24.7749 25.1691 23.7295 25.8761 22.9086Z" fill="#8B8891"/>
<path id="Vector_7" d="M25.7262 36.8316L22.9762 40.0191L22 38.9035L24.7638 35.7L25.7262 36.8316Z" fill="#57565C"/>
<path id="Vector_8" d="M22 32.5125L19.25 35.7L18.2737 34.5844L21.0375 31.3809L22 32.5125Z" fill="#57565C"/>
</g>
<defs>
<clipPath id="clip0_49_297">
<rect width="44" height="51" fill="white"/>
</clipPath>
</defs>
</svg>
