<svg width="52" height="53" viewBox="0 0 52 53" fill="none" xmlns="http://www.w3.org/2000/svg">
<g id="Loudspeaker">
<g id="Group">
<path id="Vector" d="M14.6422 20.3562L14.6058 42.2823L9.95593 45.0362L9.99337 23.1101L14.6422 20.3562Z" fill="white"/>
<path id="Vector_2" d="M9.99337 23.1101L9.95593 45.0362L4.56665 41.8647L4.60409 19.9397L9.99337 23.1101Z" fill="#D4DBE9"/>
<path id="Vector_3" d="M13.9059 19.7181L9.99338 22.0353L4.6041 18.8638L8.51658 16.5466L13.9059 19.7181Z" fill="#C4C7CE"/>
</g>
<g id="Group_2">
<path id="Vector_4" d="M11.4253 29.5502C11.7133 32.556 12.0734 33.3049 13.4028 35.1954L11.4129 34.0246L11.4253 29.5502Z" fill="#E44555"/>
<path id="Vector_5" d="M13.6278 28.2563L11.4253 29.5504C11.7133 32.556 12.0735 33.3048 13.4028 35.1955L15.6052 33.9019C13.3209 31.7797 13.6505 28.4551 13.6278 28.2563Z" fill="#ED5E72"/>
</g>
<g id="Group_3">
<path id="Vector_6" d="M4.05194 19.7209L4.08668 20.9434C4.08668 21.3478 4.22552 21.6258 4.4488 21.7626L14.0312 27.4342C13.8029 27.3029 13.669 27.0198 13.664 26.6154L13.6293 25.3929L4.05194 19.7209Z" fill="#384052"/>
<path id="Vector_7" d="M25.4291 18.4482L15.8507 12.7751L4.04977 19.7202L13.6282 25.3934L25.4291 18.4482Z" fill="#4D5772"/>
<path id="Vector_8" d="M13.6278 25.3931L13.6656 26.6172C13.6679 27.4259 14.2271 27.7506 14.9175 27.3443L24.2199 21.8704C24.9104 21.4641 25.4692 20.4814 25.4669 19.6727L25.4291 18.4486L13.6278 25.3931Z" fill="#282E3A"/>
</g>
<g id="Group_4">
<g id="Group_5">
<path id="Vector_9" d="M13.4683 9.4155C12.7291 8.97635 11.706 9.03878 10.5776 9.70245C8.33297 11.0221 6.5217 14.2228 6.52909 16.8499C6.53149 18.1572 6.98429 19.0753 7.71375 19.5068L2.27642 16.3333C1.54697 15.9016 1.09665 14.9837 1.09176 13.6788C1.08437 11.0518 2.89813 7.85105 5.14266 6.53124C6.27106 5.86514 7.53726 5.94676 8.27649 6.38592L13.4683 9.4155Z" fill="#384052"/>
<path id="Vector_10" d="M19.0758 10.5877C18.0841 9.99851 16.7116 10.0821 15.1979 10.9724C12.1868 12.7428 9.75695 17.0366 9.76683 20.5608C9.77016 22.3145 10.3775 23.546 11.3561 24.125L4.06201 19.8677C3.08348 19.2888 2.47934 18.0573 2.47269 16.3068C2.46291 12.7827 4.89599 8.48885 7.9071 6.71834C9.42082 5.82486 11.1193 5.93426 12.111 6.5234L19.0758 10.5877Z" fill="#ED5E72"/>
<path id="Vector_11" d="M15.1977 10.9731C12.188 12.7442 9.7556 17.0374 9.76538 20.5623C9.77527 24.0874 12.2234 25.5086 15.2332 23.7375C18.2429 21.9664 20.6747 17.6735 20.6649 14.1486C20.6551 10.6236 18.2075 9.20201 15.1977 10.9731Z" fill="#E44555"/>
</g>
<path id="Vector_12" d="M25.6573 42.3749L13.3198 25.0048C12.8201 24.2948 12.2295 23.6569 11.664 23.0035C11.1441 22.4066 10.8412 21.5012 10.8412 20.3332C10.8311 17.2049 12.9917 13.3923 15.6621 11.8231C16.6717 11.2262 17.7722 11.1335 18.6303 11.3445C19.4229 11.54 20.2155 11.7304 21.0232 11.8128L43.8203 14.0561C42.6188 14.1179 25.2838 41.1914 25.6573 42.3749Z" fill="#E3E6F0"/>
<path id="Vector_13" d="M43.8202 14.0559L21.0232 11.8126C20.2155 11.7302 19.4229 11.54 18.6303 11.3446C17.7722 11.1337 16.6717 11.2261 15.6621 11.8232L42.4139 15.356C43.3924 14.0322 43.615 14.0665 43.8202 14.0559Z" fill="#D4DBE9"/>
<g id="Group_6">
<path id="Vector_14" d="M47.1039 13.67C44.7363 12.2654 41.45 12.4609 37.8305 14.596C30.6269 18.8305 24.8065 29.1054 24.8318 37.5385C24.8418 41.7264 26.2957 44.6746 28.633 46.0588L26.7651 44.9524C24.4279 43.5684 22.9741 40.6202 22.9639 36.4322C22.9387 27.9993 28.7591 17.7243 35.9628 13.4899C39.5822 11.3547 42.8685 11.1593 45.236 12.5639L47.1039 13.67Z" fill="#ED5E72"/>
<path id="Vector_15" d="M37.8281 14.5943C30.6273 18.8317 24.8079 29.1033 24.8314 37.5367C24.8548 45.9701 30.7122 49.3705 37.913 45.1331C45.1138 40.8958 50.9317 30.6251 50.9082 22.1917C50.8848 13.7582 45.0289 10.3571 37.8281 14.5943Z" fill="#E44555"/>
<path id="Vector_16" d="M32.0619 45.9272C28.2391 45.9271 25.8553 42.7109 25.8411 37.5337C25.8186 29.4428 31.4222 19.5521 38.3328 15.4855C40.2061 14.3832 42.0546 13.8005 43.6784 13.8005C47.5006 13.8005 49.8842 17.0169 49.8986 22.1945C49.9212 30.2853 44.318 40.1757 37.4083 44.2419C35.5347 45.3444 33.686 45.9272 32.0619 45.9272Z" fill="#B4BED7"/>
<path id="Vector_17" d="M44.8736 13.9208C46.1012 15.3757 46.796 17.5812 46.8036 20.3583C46.8263 28.4496 41.2231 38.3397 34.3134 42.4059C32.4398 43.5087 30.5912 44.0913 28.967 44.0913C28.5497 44.0913 28.1529 44.046 27.7711 43.9712C28.8321 45.2287 30.2897 45.9272 32.0619 45.9272C33.686 45.9272 35.5347 45.3442 37.4082 44.2419C44.318 40.1756 49.9211 30.2851 49.8984 22.1943C49.8858 17.5817 47.9892 14.5324 44.8736 13.9208Z" fill="#E3E6F0"/>
</g>
<g id="Group_7">
<path id="Vector_18" d="M38.5598 25.9376C36.4505 27.1934 34.7558 30.2198 34.7751 32.6973C34.7942 35.175 36.52 36.1651 38.6293 34.9093C40.7386 33.6536 42.4329 30.6274 42.4138 28.1497C42.3945 25.6722 40.6692 24.6818 38.5598 25.9376Z" fill="#ED5E72"/>
<path id="Vector_19" d="M38.5741 27.7846C37.3334 28.5234 36.3364 30.3036 36.3478 31.761C36.359 33.2184 37.3741 33.8009 38.615 33.0622C39.8558 32.3235 40.8523 30.5434 40.8411 29.086C40.8298 27.6286 39.8149 27.046 38.5741 27.7846Z" fill="#E44555"/>
<path id="Vector_20" d="M35.4564 34.8262C35.0335 34.3559 34.7824 33.6329 34.7751 32.6973C34.7559 30.2197 36.4505 27.1934 38.56 25.9378C39.3713 25.4545 40.1243 25.3067 40.7468 25.4453C40.9632 25.4519 41.1475 25.5222 41.2941 25.6544L34.0591 18.8824C30.5634 22.434 27.7973 27.3364 26.555 32.1833L35.9045 35.1955C35.7214 35.1337 35.5705 35.0091 35.4564 34.8262Z" fill="#E3E6F0"/>
</g>
</g>
</g>
</svg>
