<svg width="47" height="48" viewBox="0 0 47 48" fill="none" xmlns="http://www.w3.org/2000/svg">
<g id="User">
<path id="Vector" d="M23.5 46.5C35.6675 46.5 45.5312 36.4264 45.5312 24C45.5312 11.5736 35.6675 1.5 23.5 1.5C11.3325 1.5 1.46875 11.5736 1.46875 24C1.46875 36.4264 11.3325 46.5 23.5 46.5Z" fill="#EEF5FD"/>
<path id="Vector_2" d="M3.49563 26.25C3.50614 21.8522 4.7784 17.5539 7.15512 13.8866C9.53184 10.2193 12.9088 7.34367 16.8685 5.61532C20.8283 3.88697 25.1972 3.38164 29.4351 4.1618C33.673 4.94197 37.5941 6.97342 40.7137 10.005C38.8548 7.53439 36.5137 5.485 33.8388 3.98668C31.1638 2.48836 28.2133 1.57377 25.1742 1.30084C22.135 1.02792 19.0735 1.40261 16.1836 2.40119C13.2936 3.39977 10.6383 5.00046 8.3857 7.10186C6.13314 9.20325 4.33249 11.7595 3.09783 14.6088C1.86317 17.458 1.2214 20.5381 1.2132 23.6539C1.205 26.7696 1.83053 29.8532 3.05017 32.7092C4.26981 35.5651 6.05698 38.1313 8.29844 40.245C5.18666 36.273 3.49267 31.3369 3.49563 26.25Z" fill="#D7E2F2"/>
<path id="Vector_3" d="M23.5 46.5C26.5365 46.4946 29.5391 45.8483 32.3194 44.6015C35.0996 43.3547 37.5975 41.5345 39.6562 39.255V38.67C39.5238 34.5192 37.8637 30.572 35.007 27.6163C32.1504 24.6606 28.3075 22.9137 24.2452 22.7244C20.1829 22.535 16.2002 23.9171 13.0918 26.5948C9.98338 29.2725 7.97802 33.0488 7.47594 37.17L7.38781 38.67V39.255C9.4415 41.5289 11.9323 43.3459 14.7045 44.5925C17.4768 45.8391 20.471 46.4884 23.5 46.5Z" fill="#96D7FF"/>
<path id="Vector_4" d="M9.00344 40.5V39.9L9.10625 38.475C9.54881 34.4356 11.428 30.7026 14.3872 27.9846C17.3465 25.2665 21.1798 23.7526 25.1597 23.73C28.1613 23.7334 31.1001 24.6073 33.6344 26.25C30.7816 23.8423 27.2008 22.5173 23.5 22.5C19.5217 22.523 15.6903 24.0374 12.7334 26.7558C9.77662 29.4741 7.90043 33.2068 7.46125 37.245L7.37313 38.745V39.33C8.68171 40.7512 10.1624 41.9963 11.7794 43.035C10.7907 42.2653 9.86257 41.4177 9.00344 40.5Z" fill="#86C3EF"/>
<path id="Vector_5" d="M23.5 28.5C29.1782 28.5 33.7812 23.799 33.7812 18C33.7812 12.201 29.1782 7.5 23.5 7.5C17.8218 7.5 13.2188 12.201 13.2188 18C13.2188 23.799 17.8218 28.5 23.5 28.5Z" fill="#FF9797"/>
<path id="Vector_6" d="M14.6875 19.125C14.6903 17.2581 15.1805 15.4257 16.1075 13.8166C17.0345 12.2075 18.3649 10.8799 19.9614 9.97067C21.558 9.06141 23.3631 8.60334 25.1907 8.64365C27.0184 8.68396 28.8024 9.2212 30.3591 10.2C29.2897 9.25806 28.0418 8.55119 26.6932 8.12348C25.3446 7.69576 23.9241 7.55637 22.5204 7.71399C21.1167 7.87161 19.7599 8.32287 18.5344 9.03963C17.309 9.75638 16.2413 10.7233 15.3979 11.88C14.5545 13.0367 13.9535 14.3585 13.6323 15.7629C13.3111 17.1673 13.2766 18.6243 13.5311 20.0429C13.7855 21.4615 14.3233 22.8113 15.1111 24.0083C15.8988 25.2053 16.9196 26.2237 18.1097 27C17.0264 26.0092 16.1612 24.795 15.5713 23.4375C14.9814 22.08 14.6801 20.6102 14.6875 19.125Z" fill="#E47979"/>
</g>
</svg>
